<svg xmlns="http://www.w3.org/2000/svg" xmlns:xlink="http://www.w3.org/1999/xlink" version="1.1" id="Capa_2" x="0px" y="0px" viewBox="0 0 623.6 226.8" enable-background="new 0 0 623.6 226.8" xml:space="preserve">
<g>
	<g>
		<g>
			<path fill="#2D4877" d="M223.5,170.8c-1.5,0.6-4.9,1.3-9.3,1.3c-12.5,0-18.9-6.4-18.9-14.8c0-10.1,8.8-15.8,19.7-15.8     c4.2,0,7.4,0.7,8.9,1.3l-1.7,5.3c-1.7-0.6-4-1.1-6.9-1.1c-6.5,0-11.5,3.2-11.5,9.8c0,5.9,4.3,9.7,11.6,9.7c2.5,0,5.2-0.4,6.8-1     L223.5,170.8z"/>
			<path fill="#2D4877" d="M260.4,156.5c0,9.7-7.2,15.6-17.7,15.6c-10.7,0-17-6.6-17-15.1c0-8.9,6.9-15.5,17.6-15.5     C254.3,141.5,260.4,148.3,260.4,156.5z M234.3,156.9c0,5.8,3.3,9.9,8.8,9.9c5.5,0,8.7-4.3,8.7-10.1c0-5.3-3.1-9.9-8.7-9.9     C237.5,146.8,234.3,151.2,234.3,156.9z"/>
			<path fill="#2D4877" d="M265.7,171.7V142h9.5l7.5,10.9c2.1,3.1,4.3,6.8,5.9,10.2h0.2c-0.5-3.9-0.7-7.9-0.7-12.4V142h7.5v29.7H287     l-7.7-11.4c-2.1-3.2-4.5-7-6.3-10.5l-0.2,0c0.2,3.9,0.3,8.1,0.3,12.9v8.9H265.7z"/>
			<path fill="#2D4877" d="M303,164.8c2.2,0.9,5.6,1.8,9.1,1.8c3.8,0,5.7-1.3,5.7-3.2c0-1.8-1.7-2.9-6.1-4.2c-6-1.7-9.9-4.4-9.9-8.8     c0-5.1,5.1-8.9,13.7-8.9c4.1,0,7.1,0.7,9.2,1.5l-1.8,5.4c-1.4-0.6-4-1.4-7.6-1.4c-3.5,0-5.3,1.3-5.3,2.9c0,1.9,2,2.7,6.7,4.2     c6.4,1.9,9.4,4.7,9.4,8.8c0,5-4.7,9.2-14.6,9.2c-4.1,0-8.2-0.9-10.2-1.8L303,164.8z"/>
			<path fill="#2D4877" d="M338.6,147.6h-9.7V142h27.8v5.6h-9.9v24h-8.2V147.6z"/>
			<path fill="#2D4877" d="M361,142.4c2.6-0.4,6.5-0.6,10.9-0.6c5.4,0,9.1,0.7,11.7,2.3c2.1,1.4,3.3,3.5,3.3,6.2     c0,3.8-3.3,6.4-6.4,7.3v0.1c2.5,0.8,3.9,2.8,4.8,5.5c1.1,3.3,2.3,7.2,2.9,8.4h-8.4c-0.6-0.8-1.4-3.3-2.5-6.9     c-1-3.7-2.5-4.7-5.8-4.8h-2.5v11.7H361V142.4z M369.1,155.2h3.2c4.1,0,6.5-1.7,6.5-4.3c0-2.7-2.3-4.1-6-4.1c-2,0-3.1,0.1-3.7,0.2     V155.2z"/>
			<path fill="#2D4877" d="M400.6,142v17.1c0,5.1,2.4,7.7,6.5,7.7c4.3,0,6.6-2.5,6.6-7.7V142h8.1v16.6c0,9.2-5.6,13.5-15.1,13.5     c-9.1,0-14.5-4.1-14.5-13.6V142H400.6z"/>
			<path fill="#2D4877" d="M455.6,170.8c-1.5,0.6-4.9,1.3-9.3,1.3c-12.5,0-18.9-6.4-18.9-14.8c0-10.1,8.8-15.8,19.7-15.8     c4.2,0,7.4,0.7,8.9,1.3l-1.7,5.3c-1.7-0.6-4-1.1-6.9-1.1c-6.5,0-11.5,3.2-11.5,9.8c0,5.9,4.3,9.7,11.6,9.7c2.5,0,5.2-0.4,6.8-1     L455.6,170.8z"/>
			<path fill="#2D4877" d="M468.6,147.6h-9.7V142h27.8v5.6h-9.9v24h-8.2V147.6z"/>
			<path fill="#2D4877" d="M522.5,156.5c0,9.7-7.2,15.6-17.7,15.6c-10.7,0-17-6.6-17-15.1c0-8.9,6.9-15.5,17.6-15.5     C516.5,141.5,522.5,148.3,522.5,156.5z M496.4,156.9c0,5.8,3.3,9.9,8.8,9.9c5.5,0,8.7-4.3,8.7-10.1c0-5.3-3.1-9.9-8.7-9.9     C499.7,146.8,496.4,151.2,496.4,156.9z"/>
			<path fill="#2D4877" d="M527.9,142.4c2.6-0.4,6.5-0.6,10.9-0.6c5.4,0,9.1,0.7,11.7,2.3c2.1,1.4,3.3,3.5,3.3,6.2     c0,3.8-3.3,6.4-6.4,7.3v0.1c2.5,0.8,3.9,2.8,4.8,5.5c1.1,3.3,2.3,7.2,2.9,8.4h-8.4c-0.6-0.8-1.4-3.3-2.5-6.9     c-1-3.7-2.5-4.7-5.8-4.8H536v11.7h-8.1V142.4z M536,155.2h3.2c4.1,0,6.5-1.7,6.5-4.3c0-2.7-2.3-4.1-6-4.1c-2,0-3.1,0.1-3.7,0.2     V155.2z"/>
			<path fill="#2D4877" d="M568.6,164.1l-2.6,7.6h-8.5l11-29.7h10.7l11.2,29.7h-8.8l-2.8-7.6H568.6z M577.7,159l-2.2-6.3     c-0.6-1.8-1.3-4-1.8-5.7h-0.1c-0.5,1.8-1.1,4-1.7,5.7l-2.1,6.3H577.7z"/>
		</g>
	</g>
	<path fill="#2D4877" d="M202.7,104.6c4,2,6.2,9.6,12.6,9.6c6.9,0,9.3-3.8,9.3-8c0-4-3.3-7.4-11.3-10.2   c-11.1-3.8-17.6-8.9-17.6-21.3c0-11.1,5.7-20.9,25.6-20.9c12.7,0,19.5,12.2,19.5,12.2l-7.6,6.8c-2.7-1.3-5.7-10-12.2-10   c-6.5,0-9,4.6-9,8c0,4.1,3.5,7.2,12.1,10.3c11.8,4.2,17.2,11.6,17.2,20.8c0,10.9-8.1,22.3-26.4,22.3c-12.2,0-20.8-12.9-20.8-12.9   L202.7,104.6z"/>
	<path fill="#2D4877" d="M259.8,107.6l-4.7,16.6h-8.4L267,59.4h19.8l20.6,64.9H289l-5.8-16.6H259.8z M279.5,96.6   c0,0-6.4-18.5-7.4-22.4H269c-1,3.8-7,22.4-7,22.4H279.5z"/>
	<path fill="#2D4877" d="M316.3,124.2V59.3l21-0.2c0,0,19,25.4,21.8,32.7l-0.4-32.5h10.1v64.9h-12L327,76.4c0.4,8.6,1,47.9,1,47.9   L316.3,124.2z"/>
	<path fill="#2D4877" d="M388.8,58.4H405v41c0,18.5-9.8,24.9-25.5,24.9c-3.7,0-3.1-0.6-6.2-1.5l1.2-8.2c2.2,0.7,1.9,0.4,5.1,0.4   c6.8,0,9.3-5.7,9.3-15.8V58.4z"/>
	<path fill="#2D4877" d="M484.4,90.1c0,21.3-13.9,34.2-34.2,34.2c-20.7,0-32.8-14.5-32.8-33c0-19.4,13.3-34,33.9-34   C472.7,57.3,484.4,72.2,484.4,90.1z M434,91c0,12.7,6.4,27.1,17,27.1c10.7,0,15.2-14.9,15.2-27.5c0-11.6-4.5-26.2-15.3-26.2   C440.2,64.4,434,78.4,434,91z"/>
	<path fill="#2D4877" d="M588.9,95.9h-22.1v19.7h25v8.7h-42.5v-67h41.1v10.2h-23.6v18.6h22.1V95.9z"/>
	<path fill="#2D4877" d="M499.6,104.6c4,2,6.2,9.6,12.6,9.6c6.9,0,9.3-3.8,9.3-8c0-4-3.3-7.4-11.3-10.2   c-11.1-3.8-17.6-8.9-17.6-21.3c0-11.1,5.7-20.9,25.6-20.9c11.4,0,19.5,12.2,19.5,12.2l-7.6,6.8c-2.7-1.3-5.7-10-12.2-10   c-6.5,0-9,4.6-9,8c0,4.1,3.5,7.2,12.1,10.3c11.8,4.2,17.2,11.6,17.2,20.8c0,10.9-8.1,22.3-26.4,22.3c-12.2,0-20.8-12.9-20.8-12.9   L499.6,104.6z"/>
	<path fill="#2D4877" d="M31.9,154.4l0.6-7.2c3.1-40.6,24.2-77.7,57.4-101.2l0.5-0.4l0.1,0.1c9.6,5.3,17.6,13.1,23.1,22.6l0.9,1.5   l-0.6,0.2c-37.4,13.7-67,43.2-80.7,80.7L31.9,154.4z"/>
	<path fill="#2D4877" d="M104.4,46.6l6,4.1c33.6,23,55.2,59.8,59,100.3l0.1,0.6l-0.1,0.1c-9.4,5.7-20.1,8.7-31.1,8.7l-1.8,0l0.1-0.6   c6.9-39.3-3.9-79.6-29.5-110.2L104.4,46.6z"/>
	<path fill="#2D4877" d="M162.6,164.7l-6.5,3.1c-36.7,17.6-79.4,17.9-116.4,0.9l-0.6-0.3l0-0.2c-0.2-11,2.5-21.8,8-31.3l0.9-1.5   l0.5,0.4c30.6,25.6,70.9,36.4,110.2,29.5L162.6,164.7z"/>
</g>
</svg>